# xmcd
#
# Track frame offsets: 
#        150
#        12522
#        24909
#        38642
#        49352
#        59872
#        72277
#        82207
#        96094
#        108989
#        133549
#        143359
#        154926
#        176273
#        198366
#        225166
#        236723
#        257696
#        277406
#        319228
#
# Disc length: 4602 seconds
#
# Revision: 0
# Processed by: cddbd v1.5.2PL0 Copyright (c) Steve Scherf et al.
# Submitted via: ExactAudioCopy v0.99pb5
#
DISCID=1a11f814
DTITLE=Willie Dixon - Giant of The Blues Disc 1
DYEAR=1900
DGENRE=Blues
TTITLE0=You Sure Look Got To Me
TTITLE1=Signifying Monkey
TTITLE2=Reno Blues
TTITLE3=Violent Love
TTITLE4=Cool Kind Woman
TTITLE5=Wang Dang Doodle
TTITLE6=So Long
TTITLE7=Walking The Blues
TTITLE8=Crazy For My Baby
TTITLE9=This Pain In My Heart
TTITLE10=Twenty Nine Ways (To My Baby's Door)
TTITLE11=All The Time
TTITLE12=Sittin' And Cryin' The Blues
TTITLE13=Spoonful
TTITLE14=I Just Wanna Make Love To You
TTITLE15=Chicago Here I Come
TTITLE16=Tore Down
TTITLE17=You Know It Ain't Right
TTITLE18=Mean Mistreater, Baby What You Want Me To Do?
TTITLE19=Roach Stew
EXTD=
EXTT0=
EXTT1=
EXTT2=
EXTT3=
EXTT4=
EXTT5=
EXTT6=
EXTT7=
EXTT8=
EXTT9=
EXTT10=
EXTT11=
EXTT12=
EXTT13=
EXTT14=
EXTT15=
EXTT16=
EXTT17=
EXTT18=
EXTT19=
PLAYORDER=
